<svg width="70" height="56" viewBox="0 0 70 56" fill="none" xmlns="http://www.w3.org/2000/svg">
<g clip-path="url(#clip0_1374_36)">
<path d="M39.7416 17.0529L38.4113 16.0428C38.2034 15.8754 37.9374 15.7963 37.6712 15.8228C37.405 15.8492 37.16 15.9791 36.9896 16.1842L18.5781 37.2133L18.8625 37.5264L23.4222 33.3448C23.2702 33.284 23.1445 33.1722 23.0668 33.0287C22.9892 32.8853 22.9645 32.7193 22.9971 32.5596C23.0297 32.4 23.1175 32.2567 23.2452 32.1547C23.373 32.0528 23.5326 31.9985 23.6964 32.0015C23.8441 32.0015 23.9879 32.0485 24.1067 32.1358C24.2255 32.2231 24.313 32.3459 24.3565 32.4863L30.3683 26.9412C30.4604 26.8674 30.5751 26.8271 30.6933 26.8271C30.8115 26.8271 30.9262 26.8674 31.0183 26.9412L31.3229 27.1634C31.426 27.2368 31.553 27.2693 31.6789 27.2543C31.8048 27.2394 31.9206 27.1781 32.0033 27.0826L39.8635 18.3154C39.947 18.2284 40.0108 18.1245 40.0503 18.0108C40.0899 17.897 40.1044 17.7762 40.0928 17.6564C40.0813 17.5366 40.0439 17.4207 39.9833 17.3166C39.9227 17.2124 39.8403 17.1225 39.7416 17.0529V17.0529Z" fill="#303030"/>
<path d="M48.3943 22.9717C44.3652 25.823 39.8515 27.9273 35.0706 29.1834C30.3255 30.3837 25.4701 31.1011 20.5791 31.3247C20.6776 32.0421 20.8547 32.7466 21.1072 33.4256C23.8694 35.9103 44.6673 31.6681 48.7294 26.7593C49.5926 25.7392 48.3943 22.9717 48.3943 22.9717ZM23.6968 33.3448C23.5602 33.3448 23.4267 33.3045 23.3131 33.2291C23.1995 33.1536 23.111 33.0463 23.0588 32.9208C23.0065 32.7953 22.9928 32.6572 23.0195 32.524C23.0461 32.3908 23.1119 32.2684 23.2085 32.1723C23.305 32.0763 23.4281 32.0109 23.562 31.9844C23.696 31.9579 23.8348 31.9715 23.961 32.0234C24.0872 32.0754 24.1951 32.1635 24.2709 32.2764C24.3468 32.3894 24.3873 32.5221 24.3873 32.658C24.3887 32.7486 24.3718 32.8385 24.3375 32.9224C24.3033 33.0064 24.2525 33.0826 24.1881 33.1467C24.1237 33.2107 24.047 33.2613 23.9626 33.2953C23.8782 33.3293 23.7878 33.3462 23.6968 33.3448V33.3448Z" fill="#303030"/>
<path d="M4.04653 21.5171L4.20901 20.8202L6.84937 21.4161C7.0672 21.8163 7.20189 22.256 7.24543 22.709C7.29582 23.1888 7.26493 23.6736 7.15403 24.1432C7.02257 24.795 6.72142 25.401 6.28068 25.9007C5.86136 26.3725 5.32068 26.7217 4.71677 26.9107C4.09435 27.1016 3.43235 27.126 2.79743 26.9814C2.16113 26.8448 1.57461 26.5374 1.10151 26.0926C0.63566 25.6654 0.301143 25.1155 0.136765 24.5068C-0.0455883 23.8457 -0.0455883 23.1479 0.136765 22.4868C0.245911 21.9919 0.441855 21.5201 0.715613 21.0929C0.974712 20.7044 1.32274 20.3824 1.73114 20.1536L2.09672 20.7091C1.74668 20.9228 1.4462 21.208 1.21513 21.5458C0.98406 21.8836 0.827653 22.2662 0.756234 22.6686C0.630295 23.1911 0.640783 23.737 0.786699 24.2543C0.923155 24.7456 1.19382 25.1896 1.56865 25.5371C1.95392 25.9075 2.43594 26.1629 2.95992 26.2744C3.46801 26.4163 4.00558 26.4163 4.51367 26.2744C5.0004 26.1146 5.43756 25.8329 5.78307 25.4563C6.13814 25.0496 6.38284 24.5593 6.49394 24.0321C6.66102 23.3926 6.61833 22.7167 6.37208 22.1029L4.04653 21.5171Z" fill="#303030"/>
<path d="M9.79397 15.1641L7.4278 18.3053L8.44333 20.1133L7.97618 20.7395L4.21875 13.9217L4.65542 13.3258L12.3023 14.9621L11.825 15.5883L9.79397 15.1641ZM9.12373 15.0025L5.06163 14.0934L7.09268 17.7195L9.12373 15.0025Z" fill="#303030"/>
<path d="M9.12402 8.64922L9.73334 8.1947L13.6025 13.3459L16.7912 10.9723L17.1771 11.4874L13.3892 14.3055L9.12402 8.64922Z" fill="#303030"/>
<path d="M15.5215 4.43729L16.2019 4.13428L18.8829 9.97232L22.5083 8.33605L22.7723 8.92188L18.4665 10.8713L15.5215 4.43729Z" fill="#303030"/>
<path d="M28.9064 6.76034L29.0587 7.39667L24.1639 8.53802L22.5391 1.64953L27.2917 0.548584L27.4339 1.17481L23.3718 2.11415L23.9506 4.55845L27.5253 3.72012L27.6776 4.34634L24.0928 5.17458L24.7021 7.72998L28.9064 6.76034Z" fill="#303030"/>
<path d="M35.8827 7.01312L34.1868 4.79103C33.9973 4.80145 33.8075 4.80145 33.6181 4.79103L31.7089 4.85163L31.78 7.09393H31.0285L30.7949 0.0236313L33.4962 0.0135309C34.26 -0.0566247 35.0237 0.147617 35.6491 0.589255C35.9127 0.800347 36.1246 1.06823 36.2688 1.37268C36.4131 1.67713 36.4859 2.01019 36.4818 2.34673C36.5115 2.84588 36.3798 3.34138 36.1061 3.76079C35.8143 4.16335 35.402 4.46384 34.9281 4.61932L36.7053 6.98282L35.8827 7.01312ZM35.1718 3.69008C35.3544 3.52378 35.496 3.31796 35.5858 3.08853C35.6756 2.8591 35.7112 2.61221 35.6897 2.36693C35.695 2.12035 35.6438 1.87581 35.54 1.65183C35.4362 1.42784 35.2825 1.23027 35.0906 1.07407C34.6225 0.758416 34.0597 0.612221 33.4962 0.659958L31.5667 0.730661L31.6886 4.26581L33.5775 4.2052C34.1534 4.2264 34.7183 4.04389 35.1718 3.69008V3.69008Z" fill="#303030"/>
<path d="M41.2552 5.13434L40.8896 7.54834L40.1483 7.43724L40.524 5.06364L38.4219 0.0134277L39.214 0.134633L41.0115 4.43741L44.058 0.871963L44.7689 1.02347L41.2552 5.13434Z" fill="#303030"/>
<path d="M51.2988 4.71024L52.1823 5.85159L51.7964 6.1546L50.9129 4.98295L50.3544 6.30611L49.9278 6.1243L50.4965 4.80115L49.0342 4.99305V4.50823L50.4762 4.34663L49.5826 3.20528L49.9786 2.90227L50.7606 4.05371L51.309 2.72046L51.7456 2.90227L51.2277 4.25572L52.6901 4.05371V4.54863L51.2988 4.71024Z" fill="#303030"/>
<path d="M54.6906 12.851C54.4508 12.4833 54.3012 12.0647 54.2539 11.6289L54.8531 11.3663C54.898 11.7667 55.0297 12.1526 55.239 12.4975C55.4658 12.8843 55.7618 13.2266 56.1123 13.5076C56.4743 13.8523 56.9362 14.0749 57.4325 14.1439C57.6118 14.1604 57.7925 14.1332 57.9589 14.0645C58.1252 13.9959 58.2722 13.8879 58.3871 13.75C58.4713 13.6576 58.5355 13.5489 58.5757 13.4307C58.6159 13.3126 58.6312 13.1875 58.6207 13.0632C58.5871 12.817 58.5042 12.58 58.3769 12.3662C58.1861 12.0562 57.9793 11.7562 57.7575 11.4673C57.4871 11.115 57.2427 10.7437 57.0263 10.3562C56.8608 10.0663 56.7701 9.7401 56.7622 9.4068C56.7615 9.03251 56.903 8.67175 57.1583 8.39676C57.3796 8.13024 57.6716 7.93078 58.0012 7.82104C58.3694 7.71525 58.7602 7.71525 59.1284 7.82104C59.6028 7.97535 60.0414 8.22262 60.4181 8.54827C60.7308 8.80691 61.0074 9.10582 61.2407 9.4371C61.4564 9.74432 61.6178 10.0859 61.718 10.4471L61.1392 10.7502C61.0382 10.4135 60.8876 10.0935 60.6923 9.80072C60.4978 9.53927 60.269 9.30488 60.0119 9.10379C59.6553 8.76062 59.1948 8.54406 58.7019 8.48766C58.5207 8.4726 58.3387 8.50256 58.172 8.57484C58.0054 8.64713 57.8595 8.75948 57.7473 8.90178C57.6609 8.99277 57.5953 9.10125 57.555 9.2198C57.5147 9.33834 57.5006 9.46415 57.5137 9.58861C57.5375 9.84331 57.621 10.0889 57.7575 10.3057C57.8996 10.538 58.1027 10.8411 58.3769 11.2047C58.6487 11.5489 58.8932 11.9136 59.1081 12.2955C59.2771 12.5846 59.3713 12.9108 59.3823 13.245C59.383 13.6193 59.2415 13.98 58.9862 14.255C58.7641 14.5252 58.4677 14.7252 58.1332 14.8307C57.7657 14.9411 57.3735 14.9411 57.006 14.8307C56.5283 14.6769 56.0863 14.4296 55.7061 14.1035C55.2962 13.7487 54.9524 13.3247 54.6906 12.851V12.851Z" fill="#303030"/>
<path d="M64.9061 14.3258L63.4742 12.3057L64.0023 11.932L67.3027 16.6186L66.7747 16.9923L65.3428 14.9722L60.0418 18.6589L59.6152 18.0428L64.9061 14.3258Z" fill="#303030"/>
<path d="M62.632 22.6283C62.8133 22.0178 63.1656 21.4713 63.6476 21.0526C64.1191 20.6326 64.6935 20.3434 65.313 20.2143C65.9446 20.0701 66.6032 20.0945 67.2222 20.285C67.8197 20.4814 68.3553 20.8296 68.776 21.295C69.2134 21.7956 69.5111 22.4016 69.6392 23.0525C69.8074 23.6915 69.8074 24.3628 69.6392 25.0019C69.4529 25.61 69.1015 26.1553 68.6236 26.5775C68.1391 27.0089 67.5505 27.3081 66.9152 27.4462C66.2799 27.5842 65.6195 27.5564 64.9982 27.3654C64.3962 27.1784 63.8582 26.8287 63.4445 26.3553C63.009 25.8574 62.7115 25.2551 62.5813 24.608C62.4261 23.9548 62.4436 23.2728 62.632 22.6283V22.6283ZM63.9624 25.8402C64.3014 26.2243 64.7408 26.5074 65.2318 26.6583C65.7378 26.8043 66.2727 26.8217 66.7872 26.7087C67.3017 26.5958 67.7795 26.3562 68.1768 26.0119C68.5516 25.6689 68.8284 25.2333 68.9791 24.7494C69.1207 24.2384 69.1345 23.7007 69.0195 23.1831C68.9045 22.6656 68.664 22.1838 68.319 21.7798C67.965 21.394 67.5122 21.1112 67.009 20.9617C66.4965 20.8264 65.9575 20.8264 65.445 20.9617C64.928 21.0604 64.4494 21.3019 64.0639 21.6586C63.6857 22.0028 63.4084 22.4427 63.2617 22.9313C63.1238 23.4441 63.1238 23.984 63.2617 24.4969C63.3729 24.998 63.6145 25.4612 63.9624 25.8402V25.8402Z" fill="#303030"/>
<path d="M61.8609 34.3547L64.4911 33.3447C64.4911 33.1629 64.5521 32.9811 64.6028 32.7892L65.1004 30.961L62.9475 30.4055L63.1405 29.6884L70.0054 31.5165L69.3149 34.0719C69.1593 34.8176 68.7416 35.4836 68.1368 35.9506C67.8589 36.1426 67.5402 36.268 67.2054 36.317C66.8707 36.3661 66.5291 36.3375 66.2074 36.2334C65.7173 36.1277 65.2781 35.8589 64.9624 35.4714C64.6467 35.084 64.4733 34.601 64.4708 34.1022L61.668 35.1123L61.8609 34.3547ZM65.2629 34.6376C65.3819 34.8522 65.5433 35.0407 65.7373 35.1918C65.9314 35.3428 66.1542 35.4533 66.3923 35.5165C66.6304 35.5797 66.8789 35.5944 67.1229 35.5596C67.3668 35.5249 67.6012 35.4414 67.8119 35.3143C68.2601 34.9562 68.566 34.4515 68.6751 33.8901L69.1625 32.0721L65.7199 31.1529L65.2325 32.971C65.0451 33.5128 65.0559 34.1029 65.2629 34.6376V34.6376Z" fill="#303030"/>
<path d="M58.2142 40.8594L57.6963 40.4655L60.7429 36.4758L66.4095 40.7483L63.4645 44.6168L62.9465 44.2229L65.4346 40.9604L63.4035 39.4353L61.1795 42.3543L60.6718 41.9705L62.9465 39.0514L60.8444 37.4657L58.2142 40.8594Z" fill="#303030"/>
<path d="M55.8389 48.9096L54.3867 48.9904V48.5056L55.8389 48.4955L55.057 47.2936L55.453 47.0411L56.2248 48.2531L56.8544 46.8997L57.2911 47.132L56.6006 48.4046L58.0528 48.3238V48.8187H56.5802L57.3622 50.0207L56.9661 50.2732L56.1943 49.0612L55.5241 50.3742L55.0976 50.1318L55.8389 48.9096Z" fill="#303030"/>
<path d="M42.6361 48.1016L43.8649 48.7783C44.0709 48.3847 44.3584 48.039 44.7085 47.7639C45.0586 47.4888 45.4633 47.2907 45.8959 47.1824C46.2995 47.0573 46.724 47.0126 47.145 47.0511C47.5103 47.079 47.8612 47.2047 48.1605 47.4147C48.4311 47.6176 48.6302 47.9005 48.7292 48.2228C48.8516 48.6215 48.8301 49.0502 48.6683 49.4348C48.4135 49.9574 48.0699 50.4324 47.6528 50.8388C47.9876 51.0177 48.2981 51.2383 48.5769 51.4953C48.7684 51.6922 48.911 51.9308 48.9933 52.1922C49.0453 52.396 49.0485 52.6091 49.0027 52.8144C48.9568 53.0196 48.8632 53.2113 48.7292 53.374C48.4581 53.7625 48.0536 54.0391 47.5919 54.1517C47.1864 54.3055 46.7381 54.3055 46.3326 54.1517C46.1523 54.0746 45.9924 53.9569 45.8655 53.8079C45.7387 53.659 45.6483 53.4828 45.6014 53.2932C45.495 52.9598 45.5204 52.5985 45.6725 52.2831C45.9056 51.824 46.2107 51.4046 46.5763 51.0408L44.1289 49.6873C44.0355 50.163 44.015 50.6499 44.068 51.1317H43.4485C43.4068 50.5384 43.4757 49.9426 43.6516 49.3742L42.3721 48.6672L42.6361 48.1016ZM44.4031 49.1116L47.0942 50.5964C47.4469 50.2614 47.7389 49.8684 47.9574 49.4348C48.069 49.142 48.069 48.8186 47.9574 48.5258C47.9114 48.3508 47.8223 48.1899 47.6982 48.0577C47.5741 47.9255 47.4189 47.826 47.2466 47.7683C46.825 47.6266 46.3683 47.6266 45.9467 47.7683C45.6022 47.8586 45.2818 48.0231 45.0081 48.2499C44.7344 48.4768 44.514 48.7606 44.3625 49.0813L44.4031 49.1116ZM48.2215 53.1518C48.2878 53.0402 48.3294 52.9157 48.3434 52.7868C48.3574 52.6579 48.3436 52.5275 48.3027 52.4043C48.2405 52.2049 48.1287 52.0242 47.9778 51.8791C47.7193 51.6623 47.4364 51.4758 47.1349 51.3236C46.827 51.6264 46.5575 51.9656 46.3326 52.3336C46.2098 52.5631 46.1807 52.8308 46.2514 53.0811C46.2836 53.1966 46.3401 53.3041 46.4171 53.3964C46.4941 53.4887 46.5899 53.5636 46.6982 53.6164C46.9567 53.7133 47.2419 53.7133 47.5005 53.6164C47.7766 53.5431 48.0176 53.3749 48.1809 53.1417L48.2215 53.1518Z" fill="#303030"/>
<path d="M30.2568 55.8889L30.399 48.8186H31.12L31.0083 54.4748L33.8924 49.768H34.2478L36.9491 54.5556L37.0507 48.9297H37.7717L37.6397 56H37.0202L34.0346 50.7175L30.8763 55.899L30.2568 55.8889Z" fill="#303030"/>
<path d="M26.7228 48.4953C27.1872 48.9356 27.5195 49.4954 27.6827 50.1125C27.8459 50.7296 27.8335 51.3796 27.6469 51.9901C27.4801 52.6152 27.1468 53.1839 26.6822 53.6365C26.2307 54.0779 25.6646 54.3856 25.0472 54.5253C24.3959 54.6714 23.718 54.6506 23.0771 54.4647C22.4383 54.3095 21.8507 53.9929 21.371 53.5456C20.9135 53.111 20.5866 52.5584 20.4266 51.9497C20.2704 51.3204 20.2819 50.6615 20.46 50.038C20.6381 49.4145 20.9766 48.848 21.4421 48.3943C21.8856 47.9541 22.4397 47.6402 23.0466 47.4853C23.6945 47.3396 24.3691 47.3604 25.0066 47.5459C25.6519 47.7086 26.2435 48.0358 26.7228 48.4953V48.4953ZM23.2599 48.1418C22.7631 48.2569 22.3091 48.5089 21.9499 48.8691C21.5758 49.2396 21.3092 49.7037 21.1781 50.2124C21.0364 50.7179 21.0364 51.2523 21.1781 51.7578C21.2978 52.2496 21.5548 52.6977 21.9194 53.0506C22.3018 53.4225 22.7739 53.6904 23.2904 53.8284C23.8068 53.9592 24.348 53.9592 24.8644 53.8284C25.3616 53.7068 25.8172 53.4558 26.1846 53.1011C26.5567 52.729 26.823 52.2655 26.9564 51.7578C27.0984 51.2489 27.0984 50.7112 26.9564 50.2023C26.8264 49.7124 26.5669 49.266 26.2049 48.9095C25.8205 48.5371 25.3441 48.2723 24.8238 48.1418C24.3121 48.0011 23.7716 48.0011 23.2599 48.1418V48.1418Z" fill="#303030"/>
<path d="M15.5719 43.4452L15.8461 46.2228C16.0203 46.2968 16.1898 46.3811 16.3539 46.4753L18.0092 47.4248L19.1262 45.4653L19.7863 45.839L16.232 51.9296L13.9166 50.6064C13.2322 50.2644 12.6923 49.6916 12.3933 48.9903C12.2829 48.6744 12.2457 48.3377 12.2844 48.0054C12.323 47.6731 12.4367 47.3538 12.6167 47.0713C12.8528 46.6286 13.227 46.2741 13.683 46.0612C14.1462 45.8704 14.6585 45.8315 15.1454 45.9501L14.8509 42.9806L15.5719 43.4452ZM14.4142 46.6369C14.1757 46.6965 13.9517 46.8032 13.7556 46.9508C13.5596 47.0985 13.3955 47.2839 13.2732 47.4961C13.1509 47.7083 13.0729 47.9428 13.0438 48.1857C13.0148 48.4285 13.0353 48.6747 13.1042 48.9095C13.3422 49.4323 13.7549 49.857 14.272 50.1115L15.907 51.0508L17.6842 48.0207L16.0492 47.0814C15.5792 46.7311 15.0006 46.556 14.4142 46.5864V46.6369Z" fill="#303030"/>
<path d="M9.56029 38.7082L10.0173 38.2537L13.5208 41.8393L8.44322 46.7683L5.06152 43.2938L5.52866 42.8393L8.40259 45.7785L10.1391 44.0311L7.62064 41.4252L8.10809 40.9606L10.6774 43.5867L12.5662 41.7585L9.56029 38.7082Z" fill="#303030"/>
<path d="M2.01604 34.7387L2.25977 33.3448L2.73706 33.4156L2.46287 34.8498L3.81352 34.3549L3.976 34.7993L2.60505 35.2639L3.73228 36.2134L3.40731 36.577L2.3207 35.5669L2.06682 37.0012L1.57937 36.9103L1.86372 35.476L0.502914 35.9609L0.350586 35.5669L1.71139 35.0922L0.584156 34.1529L0.919279 33.7893L2.01604 34.7387Z" fill="#303030"/>
</g>
<defs>
<clipPath id="clip0_1374_36">
<rect width="70" height="56" fill="white"/>
</clipPath>
</defs>
</svg>
