<svg aria-hidden="true" style="position:absolute;width:0;height:0;overflow:hidden" xmlns="http://www.w3.org/2000/svg">
  <defs>
    <!-- Logo -->
    <symbol id="logo" viewBox="0 0 69 56">
      <g clip-path="url(#clip0_4935_575)">
        <path d="m39.15 16.87-1.31-1a1 1 0 0 0-1.4.14L18.31 36.83l.28.31L23.08 33a.69.69 0 0 1 .27-1.33.68.68 0 0 1 .65.48l5.92-5.49a.51.51 0 0 1 .64 0l.3.22a.5.5 0 0 0 .67-.08l7.74-8.68a.83.83 0 0 0-.12-1.25Z"/>
        <path d="M47.67 22.73a40.45 40.45 0 0 1-13.12 6.15A71.156 71.156 0 0 1 20.28 31c.097.71.272 1.408.52 2.08 2.72 2.46 23.2-1.74 27.2-6.6.85-1.01-.33-3.75-.33-3.75ZM23.35 33a.68.68 0 1 1 .68-.68.67.67 0 0 1-.68.68ZM4 21.29l.16-.69 2.6.59c.215.396.347.831.39 1.28.05.475.02.955-.09 1.42a3.76 3.76 0 0 1-.86 1.74 3.43 3.43 0 0 1-1.54 1 3.65 3.65 0 0 1-1.89.07 3.51 3.51 0 0 1-1.67-.88 3.3 3.3 0 0 1-.95-1.57 3.78 3.78 0 0 1 0-2c.108-.49.3-.957.57-1.38a2.92 2.92 0 0 1 1-.93l.36.55a2.86 2.86 0 0 0-1.32 1.94A3.12 3.12 0 0 0 .79 24c.135.486.401.926.77 1.27.38.367.854.62 1.37.73.5.14 1.03.14 1.53 0 .48-.158.91-.437 1.25-.81.35-.403.59-.888.7-1.41a3.07 3.07 0 0 0-.12-1.91L4 21.29ZM9.66 15l-2.33 3.11 1 1.79-.46.62-3.7-6.75.43-.59 7.53 1.62-.47.62-2-.42ZM9 14.84l-4-.9 2 3.59 2-2.69ZM9 8.55l.6-.45 3.81 5.1 3.14-2.35.38.51-3.73 2.79L9 8.55ZM15.3 4.38l.67-.3 2.64 5.78 3.57-1.62.26.58-4.24 1.93-2.9-6.37ZM28.48 6.68l.15.63-4.82 1.13-1.6-6.82L26.89.53l.14.62-4 .93.57 2.42 3.52-.83.15.62-3.53.82.6 2.53 4.14-.96ZM35.35 6.93l-1.67-2.2c-.187.01-.374.01-.56 0l-1.88.06.07 2.22h-.74l-.23-7L33 0a3.16 3.16 0 0 1 2.12.57 2.2 2.2 0 0 1 .82 1.74c.029.494-.1.985-.37 1.4a2.33 2.33 0 0 1-1.16.85l1.75 2.34-.81.03Zm-.7-3.29a1.59 1.59 0 0 0 .51-1.31 1.61 1.61 0 0 0-.59-1.28A2.43 2.43 0 0 0 33 .64l-1.9.07.12 3.5 1.86-.06a2.4 2.4 0 0 0 1.57-.51ZM40.64 5.07l-.36 2.39-.73-.11.37-2.35-2.07-5 .78.12 1.77 4.26 3-3.53.7.15-3.46 4.07ZM50.53 4.65l.87 1.13-.38.3-.87-1.16-.55 1.31-.42-.18.56-1.31-1.44.19v-.48l1.42-.16-.88-1.13.39-.3L50 4l.54-1.32.43.18-.51 1.34L51.9 4v.49l-1.37.16ZM53.87 12.71a2.77 2.77 0 0 1-.43-1.21l.59-.26c.045.396.174.778.38 1.12.224.383.515.722.86 1a2.35 2.35 0 0 0 1.3.63 1.09 1.09 0 0 0 .94-.39.9.9 0 0 0 .23-.68 1.84 1.84 0 0 0-.24-.69 10.48 10.48 0 0 0-.61-.89 9.099 9.099 0 0 1-.72-1.1 2 2 0 0 1-.26-.94c0-.37.139-.728.39-1a1.83 1.83 0 0 1 .83-.57 2 2 0 0 1 1.11 0 3.68 3.68 0 0 1 1.27.72c.308.256.58.552.81.88.213.304.372.642.47 1l-.57.3a3.52 3.52 0 0 0-.44-.94 3.608 3.608 0 0 0-.67-.69 2.22 2.22 0 0 0-1.29-.61 1.08 1.08 0 0 0-.94.41.86.86 0 0 0-.23.68c.024.252.106.495.24.71.14.23.34.53.61.89.268.34.509.702.72 1.08a2 2 0 0 1 .27.94c.001.37-.138.728-.39 1a1.78 1.78 0 0 1-.84.57 1.92 1.92 0 0 1-1.11 0 3.711 3.711 0 0 1-1.28-.72 4.551 4.551 0 0 1-1-1.24ZM63.93 14.17l-1.41-2 .52-.37 3.25 4.64-.52.37-1.41-2-5.22 3.65-.42-.61 5.21-3.68ZM61.69 22.39a3.32 3.32 0 0 1 1-1.56 3.55 3.55 0 0 1 1.64-.83 3.62 3.62 0 0 1 1.88.07 3.56 3.56 0 0 1 1.53 1 3.75 3.75 0 0 1 .85 1.74 3.809 3.809 0 0 1 0 1.93 3.42 3.42 0 0 1-1 1.56 3.71 3.71 0 0 1-3.57.78 3.35 3.35 0 0 1-1.53-1 3.76 3.76 0 0 1-.85-1.73 3.851 3.851 0 0 1 .05-1.96ZM63 25.57c.334.38.767.66 1.25.81a3.1 3.1 0 0 0 2.9-.64c.37-.34.642-.77.79-1.25a3.22 3.22 0 0 0-.65-2.94 2.849 2.849 0 0 0-1.29-.81 3 3 0 0 0-1.54 0 2.76 2.76 0 0 0-1.36.69 2.79 2.79 0 0 0-.79 1.26 3 3 0 0 0 0 1.55 2.9 2.9 0 0 0 .69 1.33ZM60.93 34l2.59-1c0-.18.06-.36.11-.55l.49-1.81-2.12-.55.19-.71 6.76 1.81-.68 2.53a3.17 3.17 0 0 1-1.16 1.86 2.16 2.16 0 0 1-1.9.28 2.17 2.17 0 0 1-1.71-2.11l-2.76 1 .19-.75Zm3.35.28a1.8 1.8 0 0 0 2.51.67 2.39 2.39 0 0 0 .85-1.41l.48-1.8-3.39-.91-.48 1.8a2.41 2.41 0 0 0 .03 1.65ZM57.34 40.44l-.51-.39 3-3.95 5.58 4.23-2.9 3.83-.51-.39 2.45-3.23-2-1.51-2.19 2.89-.5-.38L62 38.65l-2.07-1.57-2.59 3.36ZM55 48.41l-1.43.08v-.48L55 48l-.77-1.19.39-.25.76 1.2.62-1.34.43.23-.68 1.26 1.43-.08v.49h-1.45l.77 1.19-.39.25-.76-1.2-.66 1.3-.42-.24.73-1.21ZM42 47.61l1.21.67a3.112 3.112 0 0 1 2-1.58 3.161 3.161 0 0 1 1.23-.13 2 2 0 0 1 1 .36c.267.2.463.48.56.8.12.395.1.82-.06 1.2a5 5 0 0 1-1 1.39c.33.177.636.396.91.65.189.195.33.431.41.69a1.329 1.329 0 0 1-.26 1.17 1.92 1.92 0 0 1-1.12.77c-.4.152-.84.152-1.24 0a1.25 1.25 0 0 1-.72-.85 1.36 1.36 0 0 1 .07-1c.23-.455.53-.87.89-1.23l-2.41-1.34a4.762 4.762 0 0 0-.06 1.43h-.61a4.783 4.783 0 0 1 .2-1.74l-1.26-.7.26-.56Zm1.74 1 2.65 1.47c.347-.332.635-.72.85-1.15.11-.29.11-.61 0-.9a1.08 1.08 0 0 0-.7-.75 2 2 0 0 0-1.28 0 2.4 2.4 0 0 0-1.56 1.3l.04.03Zm3.76 4a.9.9 0 0 0 .08-.74 1.23 1.23 0 0 0-.32-.52 4.32 4.32 0 0 0-.83-.55 5.22 5.22 0 0 0-.79 1 1 1 0 0 0-.08.74.841.841 0 0 0 .44.53c.255.096.536.096.79 0a1.19 1.19 0 0 0 .67-.47l.04.01ZM29.81 55.32l.14-7h.71l-.11 5.6 2.84-4.66h.35L36.4 54l.1-5.57h.71l-.13 7h-.61l-2.94-5.23-3.11 5.13-.61-.01ZM26.33 48a3.41 3.41 0 0 1 .91 3.46 3.56 3.56 0 0 1-.95 1.63 3.36 3.36 0 0 1-1.61.88 3.88 3.88 0 0 1-1.94-.06 3.76 3.76 0 0 1-1.68-.91 3.36 3.36 0 0 1-.93-1.58 3.69 3.69 0 0 1 1-3.52 3.45 3.45 0 0 1 1.58-.9 3.849 3.849 0 0 1 1.93.06 3.769 3.769 0 0 1 1.69.94Zm-3.41-.35a2.67 2.67 0 0 0-1.29.72 2.89 2.89 0 0 0-.76 1.33c-.14.5-.14 1.03 0 1.53.118.487.371.93.73 1.28a3.07 3.07 0 0 0 1.35.77 3.14 3.14 0 0 0 1.55 0c.49-.12.938-.369 1.3-.72a2.94 2.94 0 0 0 .76-1.33 2.88 2.88 0 0 0 0-1.54 2.81 2.81 0 0 0-.74-1.28 3 3 0 0 0-1.36-.76 2.89 2.89 0 0 0-1.54 0ZM15.35 43l.27 2.75c.171.073.338.157.5.25l1.63.94 1.1-1.94.65.37L16 51.4l-2.28-1.31a3.18 3.18 0 0 1-1.5-1.6 2.2 2.2 0 0 1 .22-1.9c.232-.438.6-.79 1.05-1a2.32 2.32 0 0 1 1.44-.11l-.29-2.94.71.46Zm-1.14 3.16a1.803 1.803 0 0 0-1.35 1.533 1.8 1.8 0 0 0 .06.717c.234.518.64.938 1.15 1.19l1.61.93 1.75-3-1.61-.93a2.47 2.47 0 0 0-1.61-.49v.05ZM9.43 38.31l.45-.45 3.45 3.55-5 4.88L5 42.85l.46-.45 2.83 2.91L10 43.58 7.52 41l.48-.46 2.53 2.6 1.86-1.81-2.96-3.02ZM2 34.38 2.24 33l.47.07-.27 1.42L3.77 34l.16.44-1.35.46 1.11.94-.32.36-1.07-1-.25 1.42-.48-.09.28-1.42-1.34.48-.15-.39 1.34-.47-1.11-.93.33-.36 1.08.94Z"/>
      </g>
      <defs>
        <clipPath id="clip0_4935_575">
          <path d="M0 0h68.93v55.46H0z"/>
        </clipPath>
      </defs>
    </symbol>
    <!-- Features icons -->
    <symbol id="antenna" viewBox="0 0 32 32">
      <path fill="#2e2f42" style="fill:var(--color1, #2e2f42)" d="m30.773 22.098-8.443-8.505.937-4.615c.242.094.499.144.758.146h.006a2.159 2.159 0 1 0-2.008-1.435l-4.96.605L8.972.161a.534.534 0 0 0-.377-.16.532.532 0 0 0-.373.155L6.709 1.66a.534.534 0 0 0 0 .754l.814.826a14.943 14.943 0 0 0 2.519 17.663.513.513 0 0 0 .146.098c-.034.18-.051.364-.052.547v6.187h-6.4a2.67 2.67 0 0 0-2.667 2.667v1.067c0 .295.239.533.533.533h24.533a.533.533 0 0 0 .533-.533v-1.067a2.67 2.67 0 0 0-2.667-2.667h-6.4v-2.742a15.09 15.09 0 0 0 3.049.32 14.854 14.854 0 0 0 7.04-1.783l.818.823a.534.534 0 0 0 .377.16.532.532 0 0 0 .373-.155l1.513-1.504a.534.534 0 0 0 0-.754zM23.28 6.233a1.067 1.067 0 1 1 .753 1.822h-.003a1.067 1.067 0 0 1-.747-1.823h-.002zm-1.256 3.505-.598 2.946-1.175-1.182 1.774-1.763zm-.605-.902-1.92 1.909-1.485-1.493 3.405-.415zM24.004 28.8a1.6 1.6 0 0 1 1.6 1.6v.533H2.137V30.4a1.6 1.6 0 0 1 1.6-1.6h20.267zm-7.467-2.133v1.067h-5.333v-1.067h5.333zM11.204 25.6v-4.053c0-1.294 1.196-2.347 2.667-2.347s2.667 1.053 2.667 2.347V25.6h-5.333zm6.4-1.696v-2.357c0-1.882-1.675-3.413-3.733-3.413a3.8 3.8 0 0 0-3.281 1.786A13.87 13.87 0 0 1 8.311 4.033l18.602 18.708a13.818 13.818 0 0 1-9.309 1.163zm11.289-.684L7.836 2.039l.755-.752 7.935 7.98c.004 0 .006.007.01.01l13.115 13.191-.757.752z"/>
      <path fill="#4d5ae5" style="fill:var(--color2, #4d5ae5)" d="M13.876 20.267h-.005a1.6 1.6 0 1 0-.004 3.2h.005a1.6 1.6 0 1 0 .004-3.2zm.373 1.978a.534.534 0 0 1-.752-.756.534.534 0 0 1 .373-.155.534.534 0 0 1 .374.911h.005z"/>
    </symbol>
    <symbol id="clock" viewBox="0 0 32 32">
      <path fill="#2e2f42" style="fill:var(--color1, #2e2f42)" d="M31.297 15.301C31.295 6.849 24.442-.002 15.989 0S.686 6.855.688 15.308a15.304 15.304 0 0 0 10.649 14.576.662.662 0 0 0 .529-.065.637.637 0 0 0 .283-.356l3.865-12.25a1.912 1.912 0 1 0-.84-3.635l-5.106-5.107a.637.637 0 0 0-.902.902l5.103 5.109a1.876 1.876 0 0 0 .536 2.309l-3.683 11.673C3.844 25.783.118 17.71 2.799 10.432S13.553-.572 20.831 2.109c7.278 2.681 11.004 10.754 8.323 18.032a14.042 14.042 0 0 1-7.462 7.973l-.398-1.874a.637.637 0 0 0-1.049-.344l-3.837 3.426a.637.637 0 0 0 .231 1.084l4.899 1.564a.638.638 0 0 0 .819-.74l-.391-1.839a15.255 15.255 0 0 0 9.329-14.089zm-15.305-.637a.638.638 0 1 1 0 1.277.638.638 0 0 1 0-1.277zm2.101 14.864 2.184-1.948.603 2.84-2.787-.892z"/>
      <path fill="#4d5ae5" style="fill:var(--color2, #4d5ae5)" d="M15.354 3.185V4.46a.638.638 0 1 0 1.276 0V3.185a.638.638 0 0 0-1.276 0zM3.876 14.664a.638.638 0 0 0 0 1.276h1.275a.638.638 0 1 0 0-1.276H3.876zm24.232 1.275a.638.638 0 1 0 0-1.276h-1.275a.638.638 0 0 0 0 1.276h1.275z"/>
    </symbol>
    <symbol id="diagram" viewBox="0 0 32 32">
      <path fill="#4d5ae5" style="fill:var(--color2, #4d5ae5)" d="M14.926 14.965h1.066v4.798h-1.066v-4.797zm4.264 2.132h1.066v2.665H19.19v-2.665zm-8.529 1.599h1.066v1.066h-1.066v-1.066zm-3.198-.533h1.066v1.599H7.463v-1.599z"/>
      <path fill="#2e2f42" style="fill:var(--color1, #2e2f42)" d="M1.599 28.291h25.587a1.6 1.6 0 0 0 1.599-1.599V24.56a1.6 1.6 0 0 0-1.599-1.599h-.533V9.668L29.681 6.8a1.608 1.608 0 1 0-.746-.763L26.654 8.2V6.97a1.6 1.6 0 0 0-1.599-1.599H3.733A1.6 1.6 0 0 0 2.134 6.97v15.992h-.533a1.6 1.6 0 0 0-1.599 1.599v2.132a1.6 1.6 0 0 0 1.599 1.599zM30.384 4.837a.533.533 0 1 1 0 1.067.533.533 0 0 1 0-1.067zM3.198 6.969c0-.294.239-.533.533-.533h21.322c.294 0 .533.239.533.533v2.239l-1.066 1.013V8.035a.533.533 0 0 0-.533-.533H4.797a.533.533 0 0 0-.533.533v13.326c0 .294.239.533.533.533h19.19a.533.533 0 0 0 .533-.533v-9.674l1.066-1.01v12.284H3.198V6.969zm4.798 6.93a1.598 1.598 0 1 0 1.107 2.749l1.853.93a.532.532 0 0 0 .636-.123l3.939-4.431 3.872 2.901a.533.533 0 0 0 .686-.039l3.365-3.188v8.131H5.33V8.569h18.124v2.66l-3.771 3.572-3.904-2.927a.533.533 0 0 0-.718.072l-3.993 4.493-1.493-.746c.011-.064.018-.129.02-.193a1.6 1.6 0 0 0-1.599-1.599zm.533 1.599a.533.533 0 1 1-1.067 0 .533.533 0 0 1 1.067 0zm3.198 8.529h5.331v.533a.533.533 0 0 1-.533.533h-4.264a.533.533 0 0 1-.533-.533v-.533zm-10.661.533c0-.294.239-.533.533-.533h9.062v.533a1.6 1.6 0 0 0 1.599 1.599h4.264a1.6 1.6 0 0 0 1.599-1.599v-.533h9.062c.294 0 .533.239.533.533v2.132a.533.533 0 0 1-.533.533H1.598a.533.533 0 0 1-.533-.533V24.56z"/>
    </symbol>
    <symbol id="astronaut" viewBox="0 0 32 32">
      <path fill="#4d5ae5" style="fill:var(--color2, #4d5ae5)" d="M31.974 4.524a.534.534 0 0 0-.43-.363l-1.91-.278-.855-1.731c-.179-.365-.777-.365-.956 0l-.855 1.731-1.91.278a.535.535 0 0 0-.296.91l1.383 1.348-.326 1.903c-.034.2.048.402.212.522a.53.53 0 0 0 .562.04l1.709-.899 1.709.899a.536.536 0 0 0 .775-.563l-.326-1.903 1.383-1.348a.536.536 0 0 0 .135-.547zm-2.463 1.327a.534.534 0 0 0-.153.472l.191 1.114-1-.526a.533.533 0 0 0-.498 0l-1.001.526.191-1.114a.534.534 0 0 0-.153-.472l-.81-.789 1.119-.163a.532.532 0 0 0 .402-.292l.5-1.013.5 1.013a.535.535 0 0 0 .402.292l1.119.163-.809.789zm-3.377 14.671h-1.067v1.067h1.067v-1.067zm0 2.134h-1.067v1.067h1.067v-1.067zm1.066-1.067h-1.067v1.067H27.2v-1.067zm-2.133 0H24v1.067h1.067v-1.067zm-2.667 4.8h-1.067v1.067H22.4v-1.067zm0 2.133h-1.067v1.067H22.4v-1.067zm1.067-1.066H22.4v1.067h1.067v-1.067zm-2.134 0h-1.067v1.067h1.067v-1.067zM16 24.256h-1.067v1.067H16v-1.067zm0 2.133h-1.067v1.067H16v-1.067zm1.067-1.067H16v1.067h1.067v-1.067zm-2.134 0h-1.067v1.067h1.067v-1.067zm-9.066-19.2H4.8v1.067h1.067V6.122zm0 2.133H4.8v1.067h1.067V8.255z"/>
      <path fill="#4d5ae5" style="fill:var(--color2, #4d5ae5)" d="M6.933 7.189H5.866v1.067h1.067V7.189zm-2.133 0H3.733v1.067H4.8V7.189z"/>
      <path fill="#2e2f42" style="fill:var(--color1, #2e2f42)" d="M24.715 14.159a1.775 1.775 0 0 0-1.188-.705 1.778 1.778 0 0 0-1.34.352l-1.252.96-1.898 1.417-1.358-.541c2.421-1.086 4.114-3.508 4.114-6.32 0-3.823-3.123-6.933-6.961-6.933s-6.961 3.11-6.961 6.933a6.86 6.86 0 0 0 1.12 3.758l-2.764-.024h-.005c-.009 0-.015.004-.023.005a.515.515 0 0 0-.155.031l-.038.013c-.006.003-.013.003-.019.006l-3.233 1.596-.001.001-1.893.911a.397.397 0 0 0-.063.035 1.779 1.779 0 0 0-.598 2.295c.22.429.595.745 1.056.889a1.776 1.776 0 0 0 1.378-.128l1.388-.738 2.264-1.169 1.357-.008L2.2 22.211l-.002.001-1.339 1.333c-.316.315-.49.732-.49 1.178s.174.863.49 1.179c.325.323.752.485 1.179.485s.854-.162 1.18-.485l1.314-1.309 1.741-1.3.901.897-1.762 1.754-.002.001-1.339 1.333c-.316.315-.49.732-.49 1.178s.174.863.49 1.179c.325.323.753.485 1.18.485s.855-.162 1.18-.485l3.482-3.467.001-.002 1.01-1-.004-.004c.006-.006.015-.009.022-.015l5.166-5.658 3.471.494a.52.52 0 0 0 .262-.033c.018-.006.033-.015.05-.023.019-.01.039-.015.058-.027l3.213-2.133c.012-.008.018-.021.029-.029.013-.01.029-.014.041-.026l1.271-1.191c.662-.62.753-1.635.212-2.362zM2.13 17.77a.714.714 0 0 1-.558.052.717.717 0 0 1-.213-1.26l1.314-.632.449 1.313-.992.527zm3.498-1.828-1.548.8-.439-1.283 2.027-1.001-.04 1.484zm15.099-6.62a5.79 5.79 0 0 1-.599 2.559l-4.181-1.899a1.863 1.863 0 0 0-.788-1.388l1.464-4.86c2.378.756 4.105 2.974 4.105 5.588zm-11.789 0c0-3.235 2.644-5.867 5.894-5.867.253 0 .5.021.745.052l-1.432 4.754c-.019-.001-.037-.006-.057-.006-1.033 0-1.873.837-1.873 1.867s.84 1.867 1.873 1.867c.694 0 1.294-.383 1.618-.945l3.862 1.755a5.894 5.894 0 0 1-4.737 2.39c-3.25 0-5.894-2.632-5.894-5.867zm5.956.8c0 .441-.362.8-.806.8s-.806-.359-.806-.8c0-.441.362-.8.806-.8s.806.359.806.8zM2.465 25.146a.608.608 0 0 1-.854.001.592.592 0 0 1 0-.844l.962-.958.851.848-.959.955zm3.214 3.734a.608.608 0 0 1-.855.001.592.592 0 0 1 0-.844l.963-.959.852.848-.96.955zm3.481-3.469-.002.001-1.765 1.76-.852-.848 1.763-1.755.002-.001c.04-.04.065-.088.09-.135.007-.014.02-.026.026-.04.017-.041.019-.085.026-.129.003-.025.014-.047.014-.073 0-.036-.013-.07-.02-.106-.006-.032-.006-.065-.019-.095a.55.55 0 0 0-.091-.138c-.01-.012-.014-.027-.025-.038h-.001l-.001-.002-1.607-1.6c-.017-.017-.039-.024-.058-.038a.507.507 0 0 0-.087-.058.515.515 0 0 0-.093-.033.507.507 0 0 0-.103-.02.5.5 0 0 0-.095.005.53.53 0 0 0-.104.02.477.477 0 0 0-.094.045c-.02.011-.042.015-.061.029L4.23 23.486l-.901-.897 2.399-2.386 4.361 4.289-.928.919zm6.819-7.017c-.015-.002-.03.004-.045.003a.556.556 0 0 0-.3.075.492.492 0 0 0-.083.061c-.013.011-.028.017-.04.029l-4.698 5.146-4.328-4.257 2.833-2.818a.534.534 0 0 0-.379-.911v-.001l-2.219.013.028-1.607 3.104.027a6.947 6.947 0 0 0 4.981 2.101c.437 0 .864-.045 1.279-.123.04.032.079.065.13.085l2.41.96.152.758.178.885-3.003-.427zm4.041.178-.313-1.558 1.446-1.08.947 1.257-2.08 1.381zm3.754-2.831-.838.785-.931-1.236.831-.637a.735.735 0 0 1 .543-.143.718.718 0 0 1 .48.284.713.713 0 0 1-.085.947z"/>
      <path fill="#2e2f42" style="fill:var(--color1, #2e2f42)" d="m13.602 18.544-2.143-2.133a.534.534 0 0 0-.753 0l-2.142 2.133a.537.537 0 0 0 0 .756l2.142 2.133a.536.536 0 0 0 .753 0l2.143-2.133a.535.535 0 0 0 0-.756zm-2.519 1.759-1.387-1.381 1.387-1.381 1.387 1.381-1.387 1.381zm6.081-15.232-.258 1.036c.071.018 1.738.452 1.738 2.149h1.067c0-2.017-1.666-2.965-2.547-3.185zm2.547 4.251h-1.067v1.067h1.067V9.322z"/>
    </symbol>
    <!-- Team icons -->
    <symbol id="instagram" viewBox="0 0 32 32">
      <path d="M31.912 9.408c-.075-1.7-.35-2.869-.744-3.882a7.803 7.803 0 0 0-1.85-2.838A7.867 7.867 0 0 0 26.486.844C25.467.45 24.304.175 22.604.1 20.891.019 20.347 0 16.003 0s-4.888.019-6.595.094c-1.7.075-2.869.35-3.882.744a7.803 7.803 0 0 0-2.838 1.85A7.867 7.867 0 0 0 .844 5.52C.45 6.539.175 7.702.1 9.402c-.081 1.713-.1 2.257-.1 6.601s.019 4.888.094 6.595c.075 1.7.35 2.869.744 3.882a7.895 7.895 0 0 0 1.85 2.838 7.867 7.867 0 0 0 2.832 1.844c1.019.394 2.182.669 3.882.744 1.706.075 2.25.094 6.595.094s4.888-.019 6.595-.094c1.7-.075 2.869-.35 3.882-.744a8.184 8.184 0 0 0 4.682-4.682c.394-1.019.669-2.182.744-3.882.075-1.707.094-2.251.094-6.595s-.006-4.888-.081-6.595zm-2.881 13.065c-.069 1.563-.331 2.407-.55 2.969a5.31 5.31 0 0 1-3.038 3.038c-.563.219-1.413.481-2.969.55-1.688.075-2.194.094-6.464.094s-4.782-.019-6.464-.094c-1.563-.069-2.407-.331-2.969-.55a4.926 4.926 0 0 1-1.838-1.194 4.974 4.974 0 0 1-1.194-1.838c-.219-.563-.481-1.413-.55-2.969-.075-1.688-.094-2.194-.094-6.464s.019-4.782.094-6.464c.069-1.563.331-2.407.55-2.969a4.868 4.868 0 0 1 1.2-1.838A4.974 4.974 0 0 1 6.583 3.55c.563-.219 1.413-.481 2.969-.55 1.688-.075 2.194-.094 6.464-.094 4.276 0 4.782.019 6.464.094 1.563.069 2.407.331 2.969.55a4.914 4.914 0 0 1 1.838 1.194 4.974 4.974 0 0 1 1.194 1.838c.219.563.481 1.413.55 2.969.075 1.688.094 2.194.094 6.464s-.019 4.77-.094 6.458z"/>
      <path d="M16.059 7.783c-4.538 0-8.22 3.682-8.22 8.22s3.682 8.22 8.22 8.22c4.539 0 8.22-3.682 8.22-8.22s-3.682-8.22-8.22-8.22zm0 13.552a5.333 5.333 0 0 1 0-10.664 5.333 5.333 0 0 1 0 10.664zM26.524 7.458a1.919 1.919 0 1 1-3.838 0 1.919 1.919 0 0 1 3.838 0z"/>
    </symbol>
    <symbol id="twitter" viewBox="0 0 32 32">
      <path d="M32 6.078c-1.19.522-2.458.868-3.78 1.036a6.523 6.523 0 0 0 2.886-3.626 13.11 13.11 0 0 1-4.16 1.588A6.574 6.574 0 0 0 22.154 3c-3.632 0-6.556 2.948-6.556 6.562 0 .52.044 1.02.152 1.496-5.454-.266-10.28-2.88-13.522-6.862a6.605 6.605 0 0 0-.898 3.316 6.57 6.57 0 0 0 2.914 5.452 6.479 6.479 0 0 1-2.964-.808v.072c0 3.188 2.274 5.836 5.256 6.446a6.548 6.548 0 0 1-1.72.216 5.8 5.8 0 0 1-1.242-.112c.85 2.598 3.262 4.508 6.13 4.57a13.182 13.182 0 0 1-8.134 2.798c-.538 0-1.054-.024-1.57-.09A18.469 18.469 0 0 0 10.064 29c12.072 0 18.672-10 18.672-18.668 0-.29-.01-.57-.024-.848A13.087 13.087 0 0 0 32 6.078z"/>
    </symbol>
    <symbol id="facebook" viewBox="0 0 32 32">
      <path d="M21.33 5.313h2.921V.225C23.747.156 22.014 0 19.995 0c-4.212 0-7.097 2.649-7.097 7.519V12H8.25v5.688h4.648V32h5.699V17.689h4.46l.708-5.688h-5.169V8.082c.001-1.644.444-2.769 2.735-2.769z"/>
    </symbol>
    <symbol id="linkedin" viewBox="0 0 32 32">
      <path d="M31.992 32v-.001H32V20.263c0-5.741-1.236-10.164-7.948-10.164-3.227 0-5.392 1.771-6.276 3.449h-.093v-2.913h-6.364v21.364h6.627V21.42c0-2.785.528-5.479 3.977-5.479 3.399 0 3.449 3.179 3.449 5.657v10.401h6.62zM.528 10.636h6.635V32H.528V10.636zM3.843 0C1.722 0 0 1.721 0 3.843s1.721 3.879 3.843 3.879c2.121 0 3.843-1.757 3.843-3.879A3.846 3.846 0 0 0 3.843 0z"/>
    </symbol>
    <!-- Contacts icons -->
    <symbol id="map-pin" viewBox="0 0 32 32">
      <path stroke-linejoin="round" stroke-linecap="round" stroke-width="1.333" d="M26.667 13.818C26.667 21.454 16 28 16 28S5.333 21.455 5.333 13.818C5.333 8.396 10.109 4 16 4s10.667 4.396 10.667 9.818z"/>
      <path stroke-linejoin="round" stroke-linecap="round" stroke-width="1.333" d="M16 18.667a4 4 0 1 0 0-8 4 4 0 0 0 0 8z"/>
    </symbol>
    <symbol id="phone" viewBox="0 0 32 32">
      <path stroke-linejoin="round" stroke-linecap="round" stroke-width="1.333" d="M26.666 21.337v3.218a2.146 2.146 0 0 1-2.338 2.145 21.239 21.239 0 0 1-9.257-3.293 20.914 20.914 0 0 1-6.436-6.436 21.221 21.221 0 0 1-3.293-9.3 2.144 2.144 0 0 1 2.134-2.338h3.218a2.144 2.144 0 0 1 2.145 1.845c.136 1.03.388 2.041.751 3.014a2.144 2.144 0 0 1-.483 2.263l-1.362 1.362a17.162 17.162 0 0 0 6.436 6.436l1.362-1.362a2.146 2.146 0 0 1 2.263-.483c.973.363 1.984.615 3.014.751a2.144 2.144 0 0 1 1.845 2.177z"/>
    </symbol>
    <symbol id="mail" viewBox="0 0 32 32">
      <path stroke-linejoin="round" stroke-linecap="round" stroke-width="1.333" d="M6.4 6.667h19.2c1.32 0 2.4 1.05 2.4 2.333v14c0 1.283-1.08 2.333-2.4 2.333H6.4C5.08 25.333 4 24.283 4 23V9c0-1.283 1.08-2.333 2.4-2.333z"/>
      <path stroke-linejoin="round" stroke-linecap="round" stroke-width="1.333" d="m26.667 9.333-10.667 8-10.667-8"/>
    </symbol>
    <!-- Modal icons -->
    <symbol id="close" viewBox="0 0 320 512">
      <path d="M310.6 150.6c12.5-12.5 12.5-32.8 0-45.3s-32.8-12.5-45.3 0L160 210.7 54.6 105.4c-12.5-12.5-32.8-12.5-45.3 0s-12.5 32.8 0 45.3L114.7 256 9.4 361.4c-12.5 12.5-12.5 32.8 0 45.3s32.8 12.5 45.3 0L160 301.3l105.4 105.3c12.5 12.5 32.8 12.5 45.3 0s12.5-32.8 0-45.3L205.3 256l105.3-105.4z"/>
    </symbol>
    <symbol id="icon-user" viewBox="0 0 576 512">
      <path d="M64 32C28.7 32 0 60.7 0 96v320c0 35.3 28.7 64 64 64h448c35.3 0 64-28.7 64-64V96c0-35.3-28.7-64-64-64H64zm80 256h64c44.2 0 80 35.8 80 80 0 8.8-7.2 16-16 16H80c-8.8 0-16-7.2-16-16 0-44.2 35.8-80 80-80zm-32-96a64 64 0 1 1 128 0 64 64 0 1 1-128 0zm256-32h128c8.8 0 16 7.2 16 16s-7.2 16-16 16H368c-8.8 0-16-7.2-16-16s7.2-16 16-16zm0 64h128c8.8 0 16 7.2 16 16s-7.2 16-16 16H368c-8.8 0-16-7.2-16-16s7.2-16 16-16zm0 64h128c8.8 0 16 7.2 16 16s-7.2 16-16 16H368c-8.8 0-16-7.2-16-16s7.2-16 16-16z"/>
    </symbol>
    <symbol id="icon-mail" viewBox="0 0 640 512">
      <path d="M48 64C21.5 64 0 85.5 0 112c0 15.1 7.1 29.3 19.2 38.4l217.6 163.2c11.4 8.5 27 8.5 38.4 0l57.4-43c23.9-59.8 79.7-103.3 146.3-109.8l13.9-10.4c12.1-9.1 19.2-23.3 19.2-38.4 0-26.5-21.5-48-48-48H48zm246.4 275.2a63.9 63.9 0 0 1-76.8 0L0 176v208c0 35.3 28.7 64 64 64h296.2c-25.1-30.4-40.2-69.5-40.2-112 0-5.6.3-11.1.8-16.6l-26.4 19.8zM640 336a144 144 0 1 0-288 0 144 144 0 1 0 288 0zm-76.7-43.3c6.2 6.2 6.2 16.4 0 22.6l-72 72c-6.2 6.2-16.4 6.2-22.6 0l-40-40c-6.2-6.2-6.2-16.4 0-22.6s16.4-6.2 22.6 0l28.7 28.7 60.7-60.7c6.2-6.2 16.4-6.2 22.6 0z"/>
    </symbol>
    <symbol id="icon-phone" viewBox="0 0 384 512">
      <path d="M0 64C0 28.7 28.7 0 64 0h224c35.3 0 64 28.7 64 64v384c0 35.3-28.7 64-64 64H64c-35.3 0-64-28.7-64-64V64zm208 384a32 32 0 1 0-64 0 32 32 0 1 0 64 0zm80-384H64v320h224V64z"/>
    </symbol>
    <symbol id="icon-check" viewBox="0 0 512 512">
      <path d="M470.6 105.4c12.5 12.5 12.5 32.8 0 45.3l-256 256c-12.5 12.5-32.8 12.5-45.3 0l-128-128c-12.5-12.5-12.5-32.8 0-45.3s32.8-12.5 45.3 0L192 338.7l233.4-233.3c12.5-12.5 32.8-12.5 45.3 0z"/>
    </symbol>
    <symbol id="icon-checkbox" viewBox="0 0 16 16">
      <rect x=".625" y=".625" width="14.75" height="14.75" rx="1.375" stroke-width="2"/>
    </symbol>
    <symbol id="icon-warning" viewBox="0 0 512 512">
      <path d="M506.3 417 293 53c-16.33-28-57.54-28-73.98 0L5.82 417c-16.41 27.9 4.029 63 36.92 63h426.6c32.76 0 53.26-35 36.96-63zM232 168c0-13.25 10.75-24 24-24s24 10.8 24 24v128c0 13.25-10.75 24-23.1 24S232 309.3 232 296V168zm24 248c-17.36 0-31.44-14.08-31.44-31.44s14.07-31.44 31.44-31.44 31.44 14.08 31.44 31.44C287.4 401.9 273.4 416 256 416z"/>
    </symbol>
    <symbol id="icon-success" viewBox="0 0 512 512">
      <path d="M0 256C0 114.6 114.6 0 256 0s256 114.6 256 256-114.6 256-256 256S0 397.4 0 256zm371.8-44.2c10.9-10.9 10.9-28.7 0-39.6-10.9-10.9-28.7-10.9-39.6 0L224 280.4l-44.2-44.2c-10.9-10.9-28.7-10.9-39.6 0-10.9 10.9-10.9 28.7 0 39.6l64 64c10.9 10.9 28.7 10.9 39.6 0l128-128z"/>
    </symbol>
  </defs>
</svg>
